<svg id="Capa_1" enable-background="new 0 0 512 512" height="512" viewBox="0 0 512 512" width="512" xmlns="http://www.w3.org/2000/svg"><g><path d="m502.226 158.467c0-4.152-3.365-7.517-7.517-7.517h-47.511l43.94-12.934c3.983-1.173 6.26-5.351 5.088-9.334s-5.348-6.26-9.334-5.089l-51.284 15.096c-9.524-8.935-25.451-14.689-43.844-14.689-2.452 0-4.866.108-7.234.309l7.474-7.474c3.605 1.824 7.742 2.72 12.195 2.72 12.046 0 26.359-6.504 38.419-18.563 8.601-8.601 14.745-18.788 17.3-28.684 1.613-6.246 1.727-12.027.419-17.046l35.584-24.831c3.404-2.376 4.238-7.062 1.863-10.466-2.375-3.405-7.06-4.24-10.466-1.863l-20.781 14.502 14.501-20.782c2.376-3.405 1.542-8.091-1.863-10.466-3.407-2.378-8.092-1.542-10.466 1.863l-24.864 35.632c-13.188-3.377-31.092 3.066-45.698 17.672-8.601 8.601-14.745 18.788-17.3 28.685-2.019 7.818-1.698 14.912.836 20.687l-26.546 26.546c.322-2.978.499-6.041.499-9.181 0-18.171-5.617-33.933-14.368-43.494l15.101-51.307c1.173-3.983-1.106-8.162-5.088-9.334-3.986-1.174-8.162 1.106-9.334 5.089l-12.934 43.942v-47.516c0-4.152-3.365-7.517-7.517-7.517s-7.517 3.366-7.517 7.517v47.516l-12.935-43.943c-1.172-3.983-5.349-6.262-9.334-5.089-3.983 1.173-6.26 5.351-5.088 9.334l14.943 50.765c-9.036 9.501-14.865 25.521-14.865 44.035 0 1.602.052 3.182.138 4.744-.501-.65-1.005-1.335-1.504-2.016-2.635-3.6-5.621-7.679-10.444-10.005-3.389-1.635-6.899-2.011-10.235-2.029l2.725-15.314c.727-4.087-1.996-7.99-6.083-8.718-4.089-.724-7.991 1.996-8.718 6.084l-2.693 15.129c-.543-.453-1.092-.926-1.638-1.398-3.231-2.796-6.888-5.926-11.779-7.24l-1.155-6.491c-.727-4.087-4.634-6.814-8.718-6.083-4.087.727-6.811 4.631-6.083 8.718l.89 5c-2.508.681-5.085 1.374-6.726 1.19-1.565-.174-3.921-1.427-6.2-2.638-3.952-2.102-8.432-4.484-13.825-4.484-5.392 0-9.872 2.382-13.825 4.483-4.087 2.228-6.609 3.626-13.037 1.419-4.274-1.162-9.118-2.478-14.278-1.306-5.242 1.192-9.075 4.507-12.456 7.433-3.478 3.064-5.64 5.031-12.388 4.311-4.439-.176-9.467-.374-14.252 1.934-4.822 2.327-7.808 6.405-10.443 10.004-2.704 3.752-4.371 6.189-11.111 6.984-4.37.818-9.323 1.746-13.484 5.069-4.171 3.33-6.174 7.961-7.941 12.046-1.804 4.25-2.885 7.022-9.282 9.282-4.086 1.767-8.716 3.77-12.046 7.941-3.323 4.161-4.25 9.114-5.069 13.484-.482 2.572-.98 5.232-1.853 6.618-.86 1.366-3.031 2.956-5.131 4.493-3.599 2.635-7.678 5.622-10.004 10.444-2.309 4.785-2.11 9.815-1.934 14.252.204 4.583.465 7.595-4.312 12.389-2.926 3.381-6.241 7.213-7.433 12.455-1.173 5.159.144 10.004 1.306 14.278 1.213 4.407 2.177 7.31-1.418 13.038-2.101 3.952-4.484 8.432-4.484 13.825s2.382 9.873 4.484 13.825c2.229 4.086 3.625 6.611 1.418 13.037-1.162 4.274-2.478 9.119-1.306 14.278 1.192 5.242 4.507 9.075 7.434 12.456 3.064 3.479 5.031 5.639 4.311 12.387-.176 4.437-.375 9.467 1.934 14.253 2.326 4.822 6.405 7.808 10.004 10.443 3.753 2.704 6.189 4.371 6.983 11.111.819 4.37 1.746 9.323 5.069 13.485 3.33 4.17 7.96 6.173 12.045 7.94 4.25 1.804 7.022 2.885 9.283 9.282 1.767 4.086 3.77 8.716 7.941 12.046 4.161 3.323 9.115 4.25 13.485 5.069 4.531.821 7.496 1.251 11.11 6.984 2.635 3.599 5.622 7.678 10.444 10.005 1.066.514 2.144.898 3.225 1.191l-8.827 52.867c-.684 4.095 2.081 7.969 6.177 8.653.419.07.835.104 1.247.104 3.607 0 6.791-2.605 7.405-6.28l9.127-54.667c1.094.038 2.069.147 2.792.4 1.507.528 3.534 2.281 5.494 3.976 3.381 2.926 7.214 6.242 12.457 7.434 5.158 1.171 10.003-.144 14.278-1.306 4.407-1.213 7.311-2.176 13.038 1.419 3.952 2.102 8.432 4.483 13.825 4.483s9.872-2.382 13.825-4.483c4.087-2.228 6.608-3.627 13.038-1.419 4.274 1.162 9.119 2.476 14.278 1.306 5.242-1.192 9.074-4.507 12.455-7.433 1.96-1.696 3.987-3.449 5.495-3.977 1.561-.546 4.271-.439 6.894-.335.508.02 1.021.04 1.538.056 1.973 2.127 4.692 3.3 6.916 4.147-1.466 3.27-3.237 7.875-.672 12.309 2.566 4.435 7.436 5.206 11.011 5.568-.572 3.541-1.085 8.443 2.535 12.063 3.621 3.619 8.521 3.108 12.064 2.536.361 3.575 1.132 8.444 5.567 11.01s9.039.795 12.31-.672c1.28 3.366 3.295 7.871 8.255 9.197 4.94 1.321 8.922-1.588 11.692-3.852 2.112 2.921 5.229 6.736 10.357 6.736s8.244-3.815 10.357-6.735c2.77 2.264 6.75 5.171 11.693 3.852 4.959-1.326 6.973-5.831 8.253-9.196 3.27 1.466 7.877 3.237 12.31.671 4.434-2.566 5.205-7.435 5.566-11.009 3.539.57 8.443 1.084 12.064-2.536 3.62-3.62 3.107-8.522 2.535-12.063 3.575-.361 8.444-1.132 11.01-5.567 2.566-4.434.796-9.039-.67-12.31 3.364-1.28 7.87-3.295 9.196-8.254 1.321-4.943-1.588-8.923-3.852-11.693 2.92-2.112 6.735-5.229 6.735-10.357s-3.815-8.244-6.735-10.356c2.264-2.77 5.173-6.75 3.852-11.695-1.326-4.958-5.832-6.972-9.196-8.252 1.466-3.271 3.237-7.875.671-12.31-2.565-4.434-7.435-5.206-11.01-5.567.572-3.541 1.085-8.443-2.535-12.063-3.62-3.619-8.521-3.108-12.064-2.536-.361-3.575-1.132-8.444-5.567-11.01-4.435-2.565-9.039-.795-12.31.671-.192-3.285-1.531-8.148-9.197-9.399.056-.299 2.489-4.362 4.184-6.323 2.926-3.381 6.241-7.213 7.433-12.455 1.173-5.159-.144-10.004-1.306-14.278-1.212-4.407-2.177-7.31 1.418-13.038 2.101-3.952 4.484-8.432 4.484-13.825s-2.382-9.873-4.484-13.825c-2.229-4.086-3.625-6.611-1.418-13.038.642-2.363 1.346-4.969 1.629-7.712.278-.387.553-.776.812-1.171l48.343 8.605c.445.079.889.118 1.326.118 3.575 0 6.744-2.56 7.392-6.201.727-4.087-1.996-7.991-6.083-8.718l-46.401-8.259c.002-.125.014-.249.014-.374s-.012-.249-.014-.374l46.401-8.259c4.087-.727 6.811-4.631 6.083-8.718-.727-4.088-4.636-6.811-8.718-6.083l-48.343 8.605c-3.22-4.926-8.018-9.28-14.008-12.823-.237-.691-.498-1.368-.806-2.008-2.327-4.821-6.405-7.808-10.004-10.443-3.753-2.703-6.19-4.372-6.984-11.111-.731-3.903-1.562-8.268-4.097-12.123l10.042-10.042c1.809-.685 3.355-2.062 4.204-3.968 3.377-7.574 17.615-15.625 37.348-15.625 22.509 0 38.195 10.242 38.195 19.433s-15.688 19.432-38.197 19.432c-7.045 0-13.961-1.058-19.998-3.058-3.941-1.307-8.195.83-9.5 4.771-1.306 3.941.83 8.194 4.771 9.5 7.545 2.5 16.095 3.821 24.728 3.821 18.393 0 34.32-5.754 43.844-14.689l51.284 15.096c.709.208 1.423.308 2.126.308 3.249 0 6.245-2.123 7.208-5.397 1.173-3.983-1.105-8.161-5.088-9.334l-43.941-12.934h47.513c4.151 0 7.516-3.366 7.516-7.517zm-93.449-91.315c9.473-9.473 20.32-14.181 27.792-14.181 3.084 0 5.595.803 7.194 2.402 5.478 5.478 1.604 21.604-11.779 34.987-13.381 13.382-29.511 17.255-34.986 11.779-5.479-5.477-1.605-21.604 11.779-34.987zm-107.044 56.106c0-22.509 10.241-38.195 19.433-38.195s19.434 15.687 19.434 38.195-10.241 38.194-19.433 38.194-19.434-15.685-19.434-38.194zm-33.377 6.264c1.442.695 3.172 3.059 4.846 5.345 2.259 3.086 4.821 6.584 8.612 8.972 2.696 1.698 5.606 2.586 8.404 3.213 4.374 13.821 12.491 24.093 22.444 27.859l-9.194 9.194c-10.285-11.336-22.343-21.12-35.535-28.735-.098-.056-.199-.101-.298-.153-2.666-3.346-5.64-6.129-8.861-8.234l3.193-17.941c2.572-.098 5.105-.139 6.389.48zm53.994 139.947c1.137 0 2.264-.025 3.383-.064.433 4.369.671 8.778.671 13.178 0 24.01-6.471 47.342-18.746 67.765-2.516-.632-5.322-.705-8.065.882-4.434 2.566-5.205 7.435-5.566 11.009-3.543-.572-8.446-1.084-12.064 2.536-3.62 3.62-3.107 8.522-2.535 12.063-3.575.361-8.444 1.132-11.01 5.566-1.923 3.322-1.411 6.74-.416 9.621-21.722 14.599-46.992 22.311-73.352 22.311-18.294 0-35.726-3.751-51.575-10.519 6.143-19.405 14.691-37.858 25.468-55.007 8.09 3.201 16.892 4.979 26.107 4.979 3.477 0 6.97-.253 10.384-.753 4.108-.601 6.951-4.418 6.35-8.526-.601-4.109-4.42-6.946-8.526-6.35-2.696.394-5.457.594-8.208.594-6.087 0-11.945-.986-17.438-2.785 4.96-6.863 10.295-13.487 15.999-19.84 5.896 9.796 20.138 16.548 37.188 16.548 15.697 0 29.011-5.723 35.628-14.274l29.39 5.231c3.182.577 7.41-1.346 8.718-6.083.727-4.087-1.996-7.991-6.083-8.718l-16.224-2.888 16.224-2.888c4.087-.727 6.811-4.631 6.083-8.718-.727-4.088-4.633-6.809-8.718-6.083l-29.39 5.231c-.273-.353-.558-.7-.853-1.043.451-3.258.684-6.563.684-9.862 0-9.959-2.095-19.812-6.096-28.851 2.976-2.106 5.734-4.785 8.212-7.971 8.37 14.008 29.279 23.709 54.376 23.709zm-78.405-112.044c10.608 0 22.428 17.772 22.428 43.274s-11.82 43.273-22.428 43.273-22.427-17.772-22.427-43.273 11.819-43.274 22.427-43.274zm-13.545 136.823c15.307 0 25.075 6.928 25.075 11.698s-9.768 11.698-25.075 11.698c-15.306 0-25.074-6.928-25.074-11.698s9.768-11.698 25.074-11.698zm20.418-11.418c-5.949-2.302-12.909-3.617-20.419-3.617-.265 0-.526.01-.79.013l17.29-17.29c2.578 6.538 3.925 13.555 3.925 20.646 0 .083-.005.166-.006.248zm-19.147-26.927-26.526 26.526c-.083-5.729-4.746-10.348-10.494-10.348-5.8 0-10.502 4.702-10.502 10.502 0 5.748 4.62 10.411 10.348 10.494l-2.897 2.897c-10.374 10.374-19.763 21.517-28.109 33.318-15.068-10.085-25.012-27.256-25.012-46.71 0-30.974 25.199-56.173 56.173-56.173 5.585 0 11.063.821 16.335 2.422 4.399 12.69 11.736 22.389 20.684 27.072zm47.782-74.12c4.751 4.005 9.228 8.339 13.375 12.962l-7.098 7.098c-.424.424-.779.889-1.081 1.378-1.16.624-2.28 1.277-3.358 1.958.069-1.479.116-2.969.116-4.48.001-6.653-.691-13.005-1.954-18.916zm-32.425-54.597-2.709 15.22c-.125-.002-.249-.014-.374-.014s-.248.012-.373.014l-3.546-19.92c2.055 1.729 4.331 3.465 7.002 4.7zm-130.928 303.112c-2.26-3.086-4.821-6.584-8.613-8.973-3.811-2.4-8.088-3.201-11.86-3.907-4.96-.916-7.972-1.198-10.394-8.307-1.522-3.519-3.248-7.507-6.426-10.686-3.179-3.179-7.167-4.904-10.685-6.426-4.624-1.991-7.523-2.927-8.307-10.394-.706-3.773-1.507-8.049-3.907-11.861-2.387-3.792-5.886-6.353-8.972-8.613-4.053-2.965-6.705-4.519-5.796-11.97.152-3.84.324-8.193-1.167-12.455-1.474-4.211-4.302-7.48-6.798-10.365-3.268-3.788-5.55-5.905-2.989-12.954 1.011-3.72 2.157-7.936 1.654-12.446-.493-4.421-2.518-8.231-4.306-11.593-2.398-4.472-4.09-7.147 0-13.533 1.788-3.362 3.813-7.172 4.307-11.593.502-4.509-.644-8.726-1.655-12.446-1.356-4.889-2.354-7.667 2.988-12.954 2.496-2.885 5.325-6.154 6.798-10.366 1.491-4.262 1.319-8.614 1.167-12.454-.218-5.053-.596-8.023 5.797-11.971 3.087-2.26 6.585-4.822 8.972-8.613 2.401-3.812 3.201-8.089 3.908-11.862.917-4.96 1.198-7.971 8.307-10.393 3.518-1.522 7.506-3.248 10.686-6.426 3.179-3.179 4.904-7.167 6.426-10.685 1.992-4.623 2.927-7.523 10.394-8.307 3.773-.707 8.049-1.507 11.861-3.908 3.792-2.387 6.353-5.886 8.613-8.972 2.966-4.052 4.518-6.706 11.97-5.797 3.841.152 8.193.325 12.454-1.167 4.212-1.474 7.481-4.302 10.366-6.798 3.788-3.267 5.906-5.55 12.954-2.989 3.72 1.011 7.938 2.158 12.445 1.655 4.422-.493 8.233-2.519 11.594-4.307 4.472-2.398 7.147-4.089 13.532 0 3.362 1.787 7.173 3.813 11.594 4.306 3.945.44 7.671-.384 11.035-1.275l3.75 21.067c-10.822-2.498-21.928-3.769-33.145-3.769-33.312 0-64.717 10.879-90.819 31.461-3.26 2.57-3.819 7.297-1.248 10.557 1.483 1.881 3.684 2.863 5.908 2.863 1.629 0 3.271-.528 4.65-1.615 23.423-18.47 51.609-28.232 81.51-28.232 9.105 0 18.123.948 26.945 2.78-9.224 10.523-15.112 27.537-15.112 47.09 0 4.048.254 7.986.736 11.782-4.125-.735-8.324-1.106-12.569-1.106-39.264 0-71.207 31.943-71.207 71.207 0 24.675 12.62 46.451 31.739 59.233-10.749 17.281-19.377 35.796-25.725 55.228-39.727-22.716-66.561-65.512-66.561-114.461 0-29.483 9.517-57.354 27.523-80.603 2.542-3.282 1.942-8.004-1.34-10.546s-8.004-1.941-10.546 1.34c-20.065 25.908-30.671 56.963-30.671 89.808 0 55.795 31.293 104.415 77.248 129.241-1.638 6.268-3.045 12.62-4.215 19.045-.007.036-.013.072-.019.109l-.694 4.159c-1.271-1.001-2.697-2.936-4.085-4.833zm132.676 6.965c-4.212 1.474-7.482 4.302-10.367 6.798-3.788 3.268-5.905 5.55-12.954 2.989-3.72-1.012-7.939-2.158-12.444-1.655-4.422.493-8.233 2.519-11.594 4.307-4.472 2.398-7.147 4.089-13.532 0-3.362-1.788-7.172-3.814-11.594-4.307-4.507-.501-8.725.643-12.446 1.655-4.89 1.355-7.668 2.354-12.954-2.989-2.884-2.495-6.153-5.324-10.365-6.798-1.756-.615-3.526-.937-5.271-1.105l.443-2.65c.929-5.092 2.024-10.131 3.266-15.119 17.182 7.072 35.985 10.983 55.688 10.983 23.852 0 46.902-5.682 67.692-16.525.467.652.947 1.26 1.402 1.816-2.92 2.112-6.735 5.228-6.735 10.356s3.815 8.244 6.735 10.357c-.205.251-.415.515-.627.785-.613-.016-1.24-.038-1.887-.064-3.842-.152-8.194-.326-12.456 1.166zm117.263-69.789c3.494 1.448 6.897.565 9.727-.577.418 3.021 1.345 6.413 4.341 8.716 3.002 2.307 6.523 2.329 9.553 1.955-.375 3.03-.351 6.552 1.955 9.554 2.303 2.996 5.695 3.923 8.715 4.341-1.143 2.831-2.025 6.235-.577 9.727 1.444 3.483 4.474 5.255 7.277 6.44-1.84 2.438-3.573 5.498-3.084 9.248.491 3.767 2.994 6.271 5.41 8.143-2.416 1.873-4.918 4.376-5.411 8.145-.488 3.749 1.245 6.809 3.085 9.247-2.803 1.185-5.834 2.956-7.279 6.44-1.448 3.492-.565 6.897.578 9.727-3.021.418-6.413 1.345-8.716 4.342-2.305 3.001-2.329 6.522-1.955 9.552-3.027-.373-6.552-.351-9.553 1.955-2.996 2.302-3.923 5.695-4.341 8.715-2.832-1.143-6.236-2.026-9.726-.577-3.484 1.444-5.255 4.475-6.44 7.277-2.439-1.84-5.505-3.576-9.247-3.084-3.768.491-6.272 2.995-8.145 5.41-1.873-2.416-4.376-4.919-8.144-5.41-.438-.057-.864-.084-1.282-.084-3.172 0-5.812 1.542-7.966 3.168-1.184-2.803-2.956-5.833-6.439-7.278-3.496-1.448-6.897-.565-9.728.577-.418-3.021-1.345-6.413-4.341-8.716-3.002-2.307-6.522-2.33-9.553-1.955.375-3.03.351-6.552-1.955-9.554-2.303-2.996-5.695-3.923-8.715-4.341 1.142-2.831 2.025-6.235.577-9.726-1.444-3.484-4.475-5.256-7.277-6.441 1.839-2.438 3.572-5.497 3.083-9.249-.491-3.767-2.994-6.27-5.41-8.143 2.416-1.873 4.918-4.376 5.411-8.145.488-3.749-1.245-6.809-3.084-9.247 2.802-1.185 5.834-2.956 7.278-6.44 1.448-3.492.565-6.897-.578-9.727 3.022-.418 6.414-1.345 8.716-4.342 2.305-3.001 2.329-6.522 1.955-9.552 3.031.373 6.553.35 9.554-1.956 2.995-2.303 3.922-5.695 4.34-8.715 2.829 1.142 6.233 2.026 9.727.577 3.483-1.445 5.254-4.475 6.44-7.278 2.438 1.84 5.5 3.573 9.248 3.084 3.767-.491 6.27-2.995 8.144-5.41 1.872 2.416 4.375 4.919 8.143 5.41 3.758.489 6.811-1.245 9.249-3.084 1.185 2.805 2.956 5.836 6.44 7.281zm-4.27-78.125c-1.787 3.362-3.813 7.172-4.307 11.593-.502 4.509.644 8.726 1.655 12.445 1.355 4.89 2.354 7.667-2.989 12.954-2.495 2.885-5.325 6.154-6.798 10.366-.604 1.725-.927 3.463-1.097 5.178-1.631-1.208-3.602-2.065-6.026-2.065-5.128 0-8.244 3.815-10.357 6.735-1.085-.886-2.357-1.868-3.798-2.66 8.798-19.12 13.385-39.979 13.385-61.313 0-4.987-.272-9.987-.772-14.94 6.082-1.252 11.703-3.11 16.686-5.479.006.68.033 1.365.11 2.06.493 4.421 2.519 8.231 4.307 11.593 2.4 4.473 4.091 7.148.001 13.533zm-39.419-34.915c-25.502 0-43.274-11.82-43.274-22.428s17.772-22.428 43.274-22.428 43.274 11.82 43.274 22.428-17.772 22.428-43.274 22.428zm7.137-70.875c.692 3.696 1.484 7.872 3.772 11.624-3.527-.413-7.169-.638-10.91-.638-2.873 0-5.687.134-8.438.38l14.857-14.857c.267 1.09.496 2.295.719 3.491z"/><path d="m289.872 425.018c0 28.858 23.478 52.336 52.336 52.336 28.857 0 52.335-23.478 52.335-52.336s-23.478-52.335-52.335-52.335c-28.858 0-52.336 23.478-52.336 52.335zm89.636 0c0 20.568-16.733 37.301-37.3 37.301-18.928 0-34.598-14.175-36.977-32.465 1.621-.679 3.218-1.546 4.695-2.726 4.171-3.33 6.174-7.961 7.941-12.047 1.804-4.25 2.885-7.021 9.281-9.281 4.087-1.767 8.717-3.77 12.046-7.941 2.49-3.117 3.634-6.679 4.397-10.107 19.928.732 35.917 17.163 35.917 37.266z"/><circle cx="342.208" cy="425.019" r="12.817"/></g></svg>