<?xml version="1.0" encoding="utf-8"?>
<!-- Generator: Adobe Illustrator 22.1.0, SVG Export Plug-In . SVG Version: 6.00 Build 0)  -->
<svg version="1.1" id="Layer_1" xmlns="http://www.w3.org/2000/svg" xmlns:xlink="http://www.w3.org/1999/xlink" x="0px" y="0px"
	 viewBox="0 0 65 55" style="enable-background:new 0 0 65 55;" xml:space="preserve">
<style type="text/css">
	.st0{fill:none;stroke:#2C3E50;stroke-width:1.25;stroke-miterlimit:10;}
	.st1{fill:none;stroke:#2C3E50;stroke-miterlimit:10;}
	.st2{fill:#2C3E50;}
</style>
<title>acdc</title>
<rect x="10.1" y="6.5" class="st0" width="44.8" height="4.6"/>
<rect x="11.6" y="11.2" class="st1" width="41.7" height="32.4"/>
<rect x="16.3" y="34.3" class="st2" width="4.6" height="3.9"/>
<rect x="23.2" y="34.3" class="st2" width="4.6" height="3.9"/>
<rect x="30.2" y="34.3" class="st2" width="4.6" height="3.9"/>
<rect x="37.1" y="34.3" class="st2" width="4.6" height="3.9"/>
<rect x="44.1" y="34.3" class="st2" width="4.6" height="3.9"/>
<rect x="16.3" y="30.5" class="st2" width="4.6" height="3.9"/>
<rect x="23.2" y="25.8" class="st2" width="4.6" height="8.5"/>
<rect x="30.2" y="21.2" class="st2" width="4.6" height="13.1"/>
<rect x="37.1" y="26.6" class="st2" width="4.6" height="7.7"/>
<rect x="44.1" y="16.6" class="st2" width="4.6" height="17.8"/>
<path class="st2" d="M15.5,23.5c-0.2,0-0.4-0.1-0.5-0.2c-0.3-0.3-0.3-0.8,0-1.1l5.4-5.4c0.3-0.3,0.8-0.3,1.1,0c0,0,0,0,0,0
	c0.3,0.3,0.3,0.8,0,1.1c0,0,0,0,0,0l-5.4,5.4C15.9,23.4,15.7,23.5,15.5,23.5L15.5,23.5z"/>
<path class="st2" d="M20.9,22c-0.4,0-0.8-0.3-0.8-0.8l0,0v-3.9c0-0.4,0.3-0.8,0.8-0.8s0.8,0.3,0.8,0.8c0,0,0,0,0,0v3.9
	C21.7,21.6,21.3,22,20.9,22L20.9,22z"/>
<path class="st2" d="M20.9,18.1h-3.9c-0.4,0-0.7-0.4-0.7-0.9c0-0.4,0.3-0.6,0.7-0.7h3.9c0.4,0,0.7,0.4,0.7,0.9
	C21.6,17.8,21.3,18.1,20.9,18.1z"/>
<path class="st2" d="M54.9,44.4H10.1c-0.4,0-0.8-0.3-0.8-0.8s0.3-0.8,0.8-0.8h44.8c0.4,0,0.8,0.3,0.8,0.8S55.3,44.4,54.9,44.4z"/>
<path class="st2" d="M32.5,46.7c-0.4,0-0.8-0.3-0.8-0.8c0,0,0,0,0,0v-2.3c0-0.4,0.3-0.8,0.8-0.8s0.8,0.3,0.8,0.8v2.3
	C33.3,46.3,32.9,46.7,32.5,46.7C32.5,46.7,32.5,46.7,32.5,46.7z"/>
<path class="st2" d="M32.5,52.1c-1.7,0-3.1-1.4-3.1-3.1s1.4-3.1,3.1-3.1c1.7,0,3.1,1.4,3.1,3.1S34.2,52.1,32.5,52.1L32.5,52.1z
	 M32.5,47.5c-0.9,0-1.5,0.7-1.5,1.6c0,0.9,0.7,1.5,1.6,1.5c0.9,0,1.5-0.7,1.5-1.6c0,0,0,0,0,0C34,48.1,33.4,47.5,32.5,47.5z"/>
</svg>
