<svg id="Layer_1" data-name="Layer 1" xmlns="http://www.w3.org/2000/svg" viewBox="0 0 65 55"><defs><style>.cls-1{fill:#2c3e50;}</style></defs><title>campus hiring</title><path class="cls-1" d="M8,47.74A3,3,0,0,1,5.6,46.32a5.64,5.64,0,0,1,0-5.86,3.6,3.6,0,0,1,1-1l.52-.24V22l-2.31-.89a1,1,0,0,1,0-1.81l28.36-12a.94.94,0,0,1,.77,0L60.21,18.56a1,1,0,0,1,0,1.8L49.54,24.88l0,.09V36.45a1,1,0,0,1-.51.86,33.1,33.1,0,0,1-15.72,4.41A30.57,30.57,0,0,1,17.58,37.3a1,1,0,0,1-.49-.85V25.87l-8-3.08V39.3l.32.15a3.47,3.47,0,0,1,1,1,5.64,5.64,0,0,1,0,5.86A3,3,0,0,1,8,47.74Zm0-2c.54,0,1.27-1,1.27-2.39S8.55,41,8,41s-1.28,1-1.28,2.4S7.46,45.78,8,45.78Zm25.3-6a30.26,30.26,0,0,0,12.95-3.22l1.34-.69v-2.2l-1.06.54a31.2,31.2,0,0,1-13.26,3.12A30.84,30.84,0,0,1,20,34.2l-1-.49v2.16l1.35.73A28,28,0,0,0,33.31,39.77Zm0-4.41A30,30,0,0,0,47.5,31.52l.1,0V25.69L33.22,31.78a.9.9,0,0,1-.36.08.94.94,0,0,1-.37-.07L19.05,26.62v4.9h0A29.67,29.67,0,0,0,33.27,35.36Zm-.45-5.53L57.33,19.46,33.53,9.3,7.78,20.19Zm.48-8.12a7.72,7.72,0,0,1-4.07-1.1,1,1,0,1,1,1-1.69,5.76,5.76,0,0,0,3.07.83,8.12,8.12,0,0,0,3.36-.86,1,1,0,0,1,.85,1.76A10,10,0,0,1,33.3,21.71Z"/></svg>