<svg id="Layer_1" data-name="Layer 1" xmlns="http://www.w3.org/2000/svg" viewBox="0 0 65 55"><defs><style>.cls-1{fill:#2c3e50;stroke:#2c3e50;stroke-miterlimit:10;stroke-width:0.75px;}</style></defs><title>i</title><path class="cls-1" d="M42.25,20.57a9.75,9.75,0,1,0-9.75,9.76A9.76,9.76,0,0,0,42.25,20.57ZM32.5,29.36a8.79,8.79,0,1,1,8.79-8.79A8.8,8.8,0,0,1,32.5,29.36Z"/><path class="cls-1" d="M48.59,45.59l-6.35-14a2.75,2.75,0,0,1,.51-.81A4.34,4.34,0,0,1,44.24,30,4,4,0,0,0,46.4,28.6,4,4,0,0,0,46.57,26a4.32,4.32,0,0,1-.06-1.7,4.44,4.44,0,0,1,.87-1.39,4,4,0,0,0,1.16-2.37,4,4,0,0,0-1.16-2.37,4.29,4.29,0,0,1-.87-1.38,4.37,4.37,0,0,1,.06-1.71,4,4,0,0,0-.17-2.56,4,4,0,0,0-2.16-1.45,4.52,4.52,0,0,1-1.49-.78A4.46,4.46,0,0,1,42,8.84a3.91,3.91,0,0,0-1.45-2.16,2.37,2.37,0,0,0-1.27-.3A7.94,7.94,0,0,0,38,6.51a8.5,8.5,0,0,1-1.17.11,2.23,2.23,0,0,1-.54-.06,4.13,4.13,0,0,1-1.38-.87A4,4,0,0,0,32.5,4.53a4,4,0,0,0-2.37,1.16,4.23,4.23,0,0,1-1.38.87,2.23,2.23,0,0,1-.54.06A8.5,8.5,0,0,1,27,6.51a7.94,7.94,0,0,0-1.29-.13,2.37,2.37,0,0,0-1.27.3A3.91,3.91,0,0,0,23,8.84a4.46,4.46,0,0,1-.78,1.48,4.52,4.52,0,0,1-1.49.78,4,4,0,0,0-2.16,1.45,3.91,3.91,0,0,0-.17,2.56,4.37,4.37,0,0,1,.06,1.71,4.29,4.29,0,0,1-.87,1.38,4,4,0,0,0-1.16,2.37,4,4,0,0,0,1.16,2.37,4.44,4.44,0,0,1,.87,1.39,4.32,4.32,0,0,1-.06,1.7,3.94,3.94,0,0,0,.17,2.57A4,4,0,0,0,20.76,30a4.34,4.34,0,0,1,1.49.79,2.74,2.74,0,0,1,.53.86l-6.37,13.9a.5.5,0,0,0,.05.49.5.5,0,0,0,.45.19l5.6-.73,3.11,4.72a.49.49,0,0,0,.4.21h0a.49.49,0,0,0,.4-.28l6-13.2,6,13.2a.47.47,0,0,0,.4.28h0a.49.49,0,0,0,.4-.21l3.11-4.72,5.6.73a.5.5,0,0,0,.45-.19A.5.5,0,0,0,48.59,45.59ZM25.94,49l-2.79-4.24a.48.48,0,0,0-.47-.21l-5,.65,5.63-12.29a3.08,3.08,0,0,0,1.2,1.56,2.46,2.46,0,0,0,1.27.3A9.24,9.24,0,0,0,27,34.64a8.6,8.6,0,0,1,1.17-.12,2.23,2.23,0,0,1,.54.06,4.59,4.59,0,0,1,1.38.87,5.81,5.81,0,0,0,1.55,1ZM32.5,35.65a3.34,3.34,0,0,1-1.77-.95A5.07,5.07,0,0,0,29,33.65a3.1,3.1,0,0,0-.78-.09,8.19,8.19,0,0,0-1.31.13,8.23,8.23,0,0,1-1.15.11,1.58,1.58,0,0,1-.79-.16,3.27,3.27,0,0,1-1-1.68,5.36,5.36,0,0,0-1-1.82,5.41,5.41,0,0,0-1.81-1,3.23,3.23,0,0,1-1.68-1,3.19,3.19,0,0,1-.05-1.94,5.26,5.26,0,0,0,0-2.09,5.07,5.07,0,0,0-1.05-1.74,3.27,3.27,0,0,1-.95-1.77,3.28,3.28,0,0,1,.95-1.76,5.26,5.26,0,0,0,1.05-1.74,5.32,5.32,0,0,0,0-2.1A3.2,3.2,0,0,1,19.44,13a3.23,3.23,0,0,1,1.68-1,5.24,5.24,0,0,0,1.81-1,5.22,5.22,0,0,0,1-1.81,3.27,3.27,0,0,1,1-1.68,1.57,1.57,0,0,1,.79-.17,8.33,8.33,0,0,1,1.15.12,9.53,9.53,0,0,0,1.31.13,2.68,2.68,0,0,0,.78-.1,4.92,4.92,0,0,0,1.74-1,3.34,3.34,0,0,1,1.77-1,3.34,3.34,0,0,1,1.77,1,4.92,4.92,0,0,0,1.74,1,2.68,2.68,0,0,0,.78.1,9.53,9.53,0,0,0,1.31-.13,8.33,8.33,0,0,1,1.15-.12,1.57,1.57,0,0,1,.79.17,3.27,3.27,0,0,1,1,1.68,5.22,5.22,0,0,0,1,1.81,5.24,5.24,0,0,0,1.81,1,3.23,3.23,0,0,1,1.68,1,3.2,3.2,0,0,1,0,1.94,5.32,5.32,0,0,0,0,2.1,5.26,5.26,0,0,0,1.05,1.74,3.28,3.28,0,0,1,.95,1.76,3.27,3.27,0,0,1-.95,1.77,5.07,5.07,0,0,0-1.05,1.74,5.26,5.26,0,0,0,0,2.09,3.19,3.19,0,0,1,0,1.94,3.23,3.23,0,0,1-1.68,1,5.41,5.41,0,0,0-1.81,1,5.36,5.36,0,0,0-1,1.82,3.27,3.27,0,0,1-1,1.68,1.58,1.58,0,0,1-.79.16,8.23,8.23,0,0,1-1.15-.11,8.19,8.19,0,0,0-1.31-.13,3.1,3.1,0,0,0-.78.09,5.07,5.07,0,0,0-1.74,1.05A3.34,3.34,0,0,1,32.5,35.65Zm9.82,8.9a.48.48,0,0,0-.47.21L39.06,49,33.32,36.46a5.81,5.81,0,0,0,1.55-1,4.48,4.48,0,0,1,1.38-.87,2.23,2.23,0,0,1,.54-.06,8.6,8.6,0,0,1,1.17.12,9.24,9.24,0,0,0,1.29.13,2.46,2.46,0,0,0,1.27-.3,3.09,3.09,0,0,0,1.22-1.61L47.35,45.2Z"/><path class="cls-1" d="M38.7,17.13a.47.47,0,0,0-.67-.07L30.2,23.51,27.14,20a.48.48,0,0,0-.68-.05.49.49,0,0,0-.05.68l3.37,3.85a.5.5,0,0,0,.37.17.5.5,0,0,0,.3-.11l8.19-6.75A.48.48,0,0,0,38.7,17.13Z"/></svg>