<svg height="480pt" viewBox="0 0 480.09226 480" width="480pt" xmlns="http://www.w3.org/2000/svg"><path d="m192 224.046875h16v16h-16zm0 0"/><path d="m432 224.046875h16v16h-16zm0 0"/><path d="m472 128.046875h-42.289062l11.539062-13.953125c6.011719-7.285156 8.730469-16.742188 7.503906-26.109375-.058594-.464844-.242187-.890625-.320312-1.339844l30.46875-16.519531-7.621094-14.078125-29.320312 15.894531c-.449219-.582031-.847657-1.207031-1.328126-1.757812l23.75-33.488282-13.046874-9.257812-23.75 33.496094c-1.492188-.589844-3.019532-1.078125-4.578126-1.457032l8.265626-33.519531-15.539063-3.824219-9.246094 37.53125c-8.570312 2.195313-15.941406 7.648438-20.550781 15.199219l-.082031.121094c.28125-8.886719-2.929688-17.527344-8.945313-24.074219-.308594-.335937-.703125-.574218-1.023437-.902344l15.3125-31.097656-14.398438-7.0625-14.722656 29.925782c-.703125-.214844-1.382813-.496094-2.101563-.671876v-41.054687h-15.976562v41.054687c-1.554688.382813-3.082031.871094-4.566406 1.464844l-12.65625-32.121094-14.890625 5.863282 14.175781 36c-5.722656 6.746094-8.59375 15.457031-8 24.28125l3.839844 51.457031h-25.550782c.039063-.523437.246094-1.023437.59375-1.417969 9.40625-10.601562 9.40625-26.5625 0-37.167968-.632812-.632813-.777343-1.609376-.351562-2.398438 5.421875-5.90625 8.066406-13.851562 7.261719-21.832031-1.933594-14.664063-14.601563-25.519531-29.390625-25.183594-.921875-.007813-1.796875-.414063-2.402344-1.113281-.398438-.429688-.585938-1.015625-.503906-1.597656 1.996094-11.902344-2.875-23.914063-12.59375-31.066407-9.722656-7.152343-22.640625-8.226562-33.40625-2.777343-10.769532 5.445312-17.558594 16.488281-17.558594 28.554687 0 1.359375.085938 2.714844.265625 4.0625.183594 1.097656-.109375 2.21875-.800781 3.089844-.59375.636719-1.457032.953125-2.320313.847656-14.644531-.1875-27.105469 10.613281-29 25.136719-.804687 7.980468 1.835938 15.929687 7.261719 21.839844.425781.789062.28125 1.761718-.351562 2.398437-9.40625 10.605469-9.40625 26.566406 0 37.167969.34375.398437.550781.894531.59375 1.417968h-15.648438c-4.417969 0-8 3.582032-8 8v128.039063c0 4.417969 3.582031 8 8 8h80v-16h-72v-48h288v48h-80v16h88c4.417969 0 8-3.582031 8-8v-128c0-4.417969-3.582031-8-8-8zm-72.367188-44.921875c3.519532-5.714844 9.925782-8.996094 16.621094-8.515625 6.695313.484375 12.566406 4.652344 15.230469 10.816406 2.660156 6.164063 1.671875 13.292969-2.5625 18.5l-19.96875 24.121094h-36.433594l4.800781-8h22.679688v-16h-13zm-64.058593 12.921875h20.425781v-16h-21.601562l-.34375-4.664063c-.398438-5.003906 1.328124-9.941406 4.761718-13.601562 3.464844-3.566406 8.226563-5.578125 13.199219-5.578125s9.734375 2.011719 13.199219 5.578125c3.433594 3.660156 5.164062 8.597656 4.761718 13.601562l-2.191406 29.601563-13.953125 23.0625h-15.886719zm-140.558594 20c-4.027344-4.542969-4.027344-11.378906 0-15.921875 6.105469-6.78125 6.167969-17.054688.144531-23.910156-2.347656-2.535156-3.480468-5.964844-3.105468-9.398438 1.070312-6.503906 6.878906-11.152344 13.457031-10.769531 5.34375.035156 10.4375-2.257813 13.945312-6.289063 3.738281-4.324218 5.441407-10.046874 4.671875-15.710937-.089844-.664063-.128906-1.332031-.128906-2-.03125-8.183594 6.117188-15.074219 14.253906-15.964844 8.136719-.894531 15.632813 4.496094 17.378906 12.492188.433594 1.992187.484376 4.050781.152344 6.0625-.871094 5.234375.613282 10.582031 4.054688 14.617187 3.738281 4.394532 9.246094 6.886719 15.015625 6.792969 6.449219-.246094 12.066406 4.363281 13.082031 10.734375.371094 3.433594-.757812 6.859375-3.105469 9.394531-6.023437 6.855469-5.957031 17.132813.152344 23.910157 4.027344 4.542968 4.027344 11.378906 0 15.921874-2.933594 3.3125-4.570313 7.574219-4.617187 12h-13.054688l2.34375-2.34375-11.3125-11.3125-10.34375 10.382813v-17.375l21.65625-21.65625-11.3125-11.3125-10.34375 10.34375v-28.6875h-16v28.6875l-10.34375-10.34375-11.3125 11.3125 21.65625 21.65625v17.375l-10.34375-10.34375-11.3125 11.3125 2.34375 2.34375h-13.046875c-.046875-4.425781-1.691406-8.6875-4.625-12zm-19.015625 76v-48h288v48zm0 0"/><path d="m192 160.046875h16v16h-16zm0 0"/><path d="m432 160.046875h16v16h-16zm0 0"/><path d="m32 480.046875h80c17.671875 0 32-14.328125 32-32v-146.402344c.011719-10.074219-2.101562-20.042969-6.207031-29.246093l-25.792969-58.046876v-6.304687c4.417969 0 8-3.582031 8-8v-24c0-8.835937-7.164062-16-16-16h-64c-8.835938 0-16 7.164063-16 16v24c0 4.417969 3.582031 8 8 8v6.304687l-25.800781 58.03125c-4.101563 9.210938-6.2109378 19.179688-6.199219 29.261719v146.402344c0 17.671875 14.328125 32 32 32zm96-32c0 8.835937-7.164062 16-16 16h-80c-8.835938 0-16-7.164063-16-16v-146.402344c-.019531-7.832031 1.617188-15.582031 4.800781-22.742187l6.085938-13.6875c14.746093-5.089844 30.742187-5.28125 45.601562-.535156 14.320313 4.914062 29.667969 6.054687 44.558594 3.320312l1.121094-.226562 4.945312 11.128906c3.214844 7.152344 4.878907 14.902344 4.886719 22.742187zm-88-272h64v16h-64zm56 32v8c0 1.117187.234375 2.226563.6875 3.246094l14.808594 33.3125c-11.445313 1.636719-23.117188.542969-34.054688-3.199219-13.664062-4.347656-28.175781-5.300781-42.289062-2.777344l12.160156-27.359375c.449219-1.015625.683594-2.113281.6875-3.222656v-8zm0 0"/><path d="m32 296.046875h16v16h-16zm0 0"/><path d="m32 328.046875h16v80h-16zm0 0"/><path d="m464.910156 353.125c-9.503906-7.464844-21.9375-10.101562-33.652344-7.132812l-15.257812 3.804687v-37.75c0-13.253906-10.746094-24-24-24h-13.199219c-7.730469-25.636719-24.132812-47.785156-46.402343-62.65625-2.8125-1.863281-6.492188-1.761719-9.199219.253906l-83.199219 62.402344h-56c-13.253906 0-24 10.746094-24 24v144c0 13.253906 10.746094 24 24 24h208c13.253906 0 24-10.746094 24-24v-37.753906l15.257812 3.808593c17.992188 4.566407 36.722657-4.121093 44.863282-20.804687 8.140625-16.6875 3.460937-36.792969-11.210938-48.171875zm-256.910156.289062v-17.367187h160v80h-160v-17.367187c9.597656-3.386719 16.011719-12.457032 16.011719-22.632813s-6.414063-19.246094-16.011719-22.632813zm120.144531-111.472656c24.652344 18.46875 39.371094 47.304688 39.855469 78.105469h-144zm126.917969 160.417969c-5.628906 4.414063-12.988281 5.972656-19.925781 4.222656l-25.191407-6.296875c-2.390624-.597656-4.925781-.0625-6.867187 1.453125s-3.078125 3.84375-3.078125 6.308594v48c0 4.417969-3.582031 8-8 8h-208c-4.417969 0-8-3.582031-8-8v-144c0-4.417969 3.582031-8 8-8h34.664062l-23.464843 17.597656c-.160157.152344-.316407.3125-.464844.480469-.25.226562-.484375.46875-.703125.730469-.414062.488281-.773438 1.027343-1.0625 1.597656-.613281 1.066406-.9375 2.273437-.945312 3.503906l-.023438.089844v32c0 4.417969 3.582031 8 8 8s8 3.582031 8 8-3.582031 8-8 8-8 3.582031-8 8v32c0 4.417969 3.582031 8 8 8h176c4.417969 0 8-3.582031 8-8v-102.3125c-.050781-5.925781-.554688-11.839844-1.511719-17.6875h9.511719c4.417969 0 8 3.582031 8 8v48c0 2.464844 1.136719 4.789063 3.078125 6.304687 1.941406 1.515626 4.476563 2.054688 6.867187 1.453126l25.191407-6.292969c10.667969-2.738281 21.789062 2.402343 26.617187 12.296875 4.828125 9.898437 2.03125 21.828125-6.691406 28.550781zm0 0"/><path d="m432 376.046875h16v16h-16zm0 0"/><path d="m272 400.046875c13.253906 0 24-10.746094 24-24s-10.746094-24-24-24-24 10.746094-24 24 10.746094 24 24 24zm0-32c4.417969 0 8 3.582031 8 8s-3.582031 8-8 8-8-3.582031-8-8 3.582031-8 8-8zm0 0"/><path d="m312 352.046875h16v16h-16zm0 0"/><path d="m336 384.046875h16v16h-16zm0 0"/><path d="m56 96.046875c-.003906 24.023437 17.75 44.347656 41.558594 47.574219 23.804687 3.222656 46.328125-11.648438 52.714844-34.804688 6.386718-23.160156-5.332032-47.472656-27.425782-56.90625l17.953125-13.464844-9.601562-12.800781-19.199219 14.402344v-24h-16v24l-19.199219-14.402344-9.601562 12.800781 17.953125 13.464844c-17.664063 7.5625-29.128906 24.921875-29.152344 44.136719zm48-32c17.671875 0 32 14.328125 32 32s-14.328125 32-32 32-32-14.328125-32-32 14.328125-32 32-32zm0 0"/></svg>