<svg id="Layer_1" data-name="Layer 1" xmlns="http://www.w3.org/2000/svg" viewBox="0 0 65 55"><defs><style>.cls-1{fill:#2c3e50;}</style></defs><title>i</title><path class="cls-1" d="M45.38,20.76l.19-.27.58-.8c1.94-2.62,6-8.08,4.54-12.28A4.77,4.77,0,0,0,47,4a4.24,4.24,0,0,0-4,1.57s-.05.09-.08.14a2,2,0,0,1-.05-.24,1.61,1.61,0,0,0-1.58-1.28H41a76.28,76.28,0,0,0-20.2,5.64,1.63,1.63,0,0,0-.88,2,2.09,2.09,0,0,1,.08.23L19.85,12a4.23,4.23,0,0,0-4.27.75,4.77,4.77,0,0,0-1.42,4.85c1,4.34,7.23,6.92,10.25,8.16l.9.38.32.14c3.17,1.33,4.22,2.12,4.54,2.55s.41.89.15,1.12-.87.26-1.42-.25a.81.81,0,0,0-1.09,1.19,3,3,0,0,0,2,.85,2.35,2.35,0,0,0,1.58-.59,2.13,2.13,0,0,0,.69-1.63l1.95,1.35.23.74-.2.07c-3.29,1.24-3.08,4-2.95,5.58a4.77,4.77,0,0,1,0,1.76,4.84,4.84,0,0,1-1.34,2l-.07.06-7.77,7.22a1.62,1.62,0,0,0,1.1,2.8H33.19a1.6,1.6,0,0,0,1.13-.46l2-2,.28.56A1.62,1.62,0,0,0,38,50.1a1.59,1.59,0,0,0,.43-.06l8.41-2.34A1.63,1.63,0,0,0,48,46l-.13-1.61a1.61,1.61,0,0,0-1.49-1.49l-.94-.07a3.24,3.24,0,0,0,1.14-3.3,2.79,2.79,0,0,0-.48-1,3.5,3.5,0,0,0-.07-1.47,3.09,3.09,0,0,0-.75-1.31,3.38,3.38,0,0,0-.11-1.18,3,3,0,0,0-.8-1.36,2.72,2.72,0,0,0-2.84-3,3.51,3.51,0,0,0-.71.08l-.31-1.27c.35-.77.67-1.49,1-2.17a2.09,2.09,0,0,0,1.43,1,2,2,0,0,0,.41,0,2.72,2.72,0,0,0,2.54-2.13.81.81,0,1,0-1.55-.45c-.22.72-.71,1-1.09.95s-.51-.45-.45-1S43.35,23.54,45.38,20.76Zm.29-11.23a2.9,2.9,0,0,1-1.52-.75,2.1,2.1,0,0,1,.07-2.26,2.64,2.64,0,0,1,2.49-.93,3.17,3.17,0,0,1,2.45,2.34c1.15,3.4-2.68,8.59-4.31,10.8-.25.34-.46.62-.61.84l-.17.24-.15.2a26.44,26.44,0,0,0-.18-9.5,5.71,5.71,0,0,0,1.58.6.8.8,0,0,0,1-.61A.81.81,0,0,0,45.67,9.53ZM26.25,24.79,26,24.67l-.95-.4c-2.54-1.05-8.5-3.51-9.28-7A3.19,3.19,0,0,1,16.62,14a2.66,2.66,0,0,1,2.61-.49,2.08,2.08,0,0,1,1.23,1.9,2.82,2.82,0,0,1-.9,1.43A.81.81,0,0,0,20.67,18a5.77,5.77,0,0,0,1-1.33,26.51,26.51,0,0,0,4.77,8.22Zm20,19.73.12,1.62L38,48.49l-.52-1,1.1-1.09a19.21,19.21,0,0,0,4.6-2.08ZM40.7,32.05a2.5,2.5,0,0,1,.87-.18c1.31,0,1.77,1.43.43,2.47a1.16,1.16,0,0,1,.63-.2c1.09,0,1.6,1.91.33,2.68a1.06,1.06,0,0,1,.56-.17c1,0,1.61,1.93.22,2.77l.06,0a.8.8,0,0,1,.44-.13c.89,0,1.49,1.62-.23,2.66a23,23,0,0,1-6.28,3l-4.54,4.49H23l7.78-7.23a6.49,6.49,0,0,0,1.82-2.67c.77-2.16-1.25-5.12,2-6.36C35.41,32.91,39,32.74,40.7,32.05Zm-1.85-3.16.45,1.9c-.89.21-2.06.36-3,.48l-.44.06-.47-1.48c-8-5.47-9.85-6.69-14-18.54A74.37,74.37,0,0,1,41.2,5.79C43.81,18.09,42.84,20.1,38.85,28.89Z"/></svg>