<svg id="Layer_1" data-name="Layer 1" xmlns="http://www.w3.org/2000/svg" viewBox="0 0 65 55"><defs><style>.cls-1{fill:#2c3e50;}</style></defs><title>i</title><path class="cls-1" d="M38.77,43h-.08a.8.8,0,0,1-.73-.88l.08-.83A10.64,10.64,0,0,1,41.18,35,11.73,11.73,0,0,0,40.71,18,11.9,11.9,0,0,0,21,25.23a11.68,11.68,0,0,0,3.54,10,10,10,0,0,1,3,6.63l0,.24a.81.81,0,1,1-1.62.12l0-.24A8.38,8.38,0,0,0,23.4,36.4a13.31,13.31,0,0,1-4-11.37,13.51,13.51,0,0,1,26.9,1.7,13.26,13.26,0,0,1-3.93,9.46,9.15,9.15,0,0,0-2.68,5.25l-.07.79A.82.82,0,0,1,38.77,43Z"/><path class="cls-1" d="M32.5,10.73a.81.81,0,0,1-.81-.81V5a.82.82,0,0,1,.81-.82.82.82,0,0,1,.82.82V9.92A.82.82,0,0,1,32.5,10.73Z"/><path class="cls-1" d="M55.31,30.28h-5a.81.81,0,0,1-.81-.81.82.82,0,0,1,.81-.82h5a.82.82,0,0,1,.82.82A.82.82,0,0,1,55.31,30.28Z"/><path class="cls-1" d="M48,15.62a.82.82,0,0,1-.58-.24.83.83,0,0,1,0-1.15L50.66,11a.82.82,0,0,1,1.16,1.15l-3.26,3.26A.82.82,0,0,1,48,15.62Z"/><path class="cls-1" d="M17,15.62a.78.78,0,0,1-.57-.24l-3.26-3.26A.81.81,0,0,1,14.34,11l3.26,3.26a.81.81,0,0,1,0,1.15A.82.82,0,0,1,17,15.62Z"/><path class="cls-1" d="M14.68,30.28h-5a.82.82,0,0,1-.82-.81.82.82,0,0,1,.82-.82h5a.82.82,0,0,1,.81.82A.81.81,0,0,1,14.68,30.28Z"/><path class="cls-1" d="M39,46.88H26.37a.82.82,0,0,1-.81-.82.81.81,0,0,1,.81-.81H39a.81.81,0,0,1,.81.81A.82.82,0,0,1,39,46.88Z"/><path class="cls-1" d="M36.61,50.79H28.73a.82.82,0,0,1-.81-.82.81.81,0,0,1,.81-.81h7.88a.81.81,0,0,1,.81.81A.82.82,0,0,1,36.61,50.79Z"/><path class="cls-1" d="M34.1,43.18a.82.82,0,0,1-.82-.82V26.92a.82.82,0,0,1,.82-.81.81.81,0,0,1,.81.81V42.36A.82.82,0,0,1,34.1,43.18Z"/><path class="cls-1" d="M30.84,40.77A.82.82,0,0,1,30,40v-.82a.82.82,0,0,1,.82-.81.81.81,0,0,1,.81.81V40A.81.81,0,0,1,30.84,40.77Z"/><path class="cls-1" d="M30.84,36.7a.82.82,0,0,1-.82-.81v-.82a.82.82,0,0,1,.82-.82.82.82,0,0,1,.81.82v.82A.81.81,0,0,1,30.84,36.7Z"/><path class="cls-1" d="M30.84,32.63a.82.82,0,0,1-.82-.82V27.74H27.58a.83.83,0,0,1-.73-.45.81.81,0,0,1,.08-.86l4.89-6.51a.84.84,0,0,1,1.3,0L38,26.43a.83.83,0,0,1,.07.86.81.81,0,0,1-.72.45H34.1a.82.82,0,0,1-.82-.82.82.82,0,0,1,.82-.81h1.63l-3.26-4.35-3.26,4.35h1.63a.81.81,0,0,1,.81.81v4.89A.82.82,0,0,1,30.84,32.63Z"/></svg>