<svg id="Layer_1" data-name="Layer 1" xmlns="http://www.w3.org/2000/svg" viewBox="0 0 65 55"><defs><style>.cls-1{fill:#2c3e50;}</style></defs><title>i</title><path class="cls-1" d="M20.69,50.63a1,1,0,0,1,0-2h2.54a.54.54,0,0,0,.3-.1c.62-.49,2.07-2.08,2.07-6.29a.47.47,0,0,0-.48-.48H12.91a3.55,3.55,0,0,1-3.54-3.55V7.91a3.55,3.55,0,0,1,3.54-3.54H52.09a3.55,3.55,0,0,1,3.54,3.54V38.23a3.55,3.55,0,0,1-3.54,3.55H39.88a.47.47,0,0,0-.48.48c0,4.22,1.44,5.8,2.06,6.29a.51.51,0,0,0,.3.1h2.55a1,1,0,1,1,0,2Zm7.38-8.85a.47.47,0,0,0-.48.48A12.73,12.73,0,0,1,26.46,48a.47.47,0,0,0,0,.47.49.49,0,0,0,.41.23H38.11a.49.49,0,0,0,.41-.23.47.47,0,0,0,0-.47,12.73,12.73,0,0,1-1.13-5.69.47.47,0,0,0-.48-.48ZM11.84,32.92a.49.49,0,0,0-.49.48v4.83a1.58,1.58,0,0,0,1.56,1.56H52.09a1.56,1.56,0,0,0,1.56-1.56V33.4a.49.49,0,0,0-.49-.48ZM12.91,6.35a1.59,1.59,0,0,0-1.56,1.56V30.45a.49.49,0,0,0,.49.49H53.16a.49.49,0,0,0,.49-.49V7.91a1.56,1.56,0,0,0-1.56-1.56Z"/><rect class="cls-1" x="31.51" y="35.36" width="1.98" height="1.98"/><rect class="cls-1" x="15.27" y="11.75" width="1.98" height="1.98"/><rect class="cls-1" x="15.27" y="17.65" width="1.98" height="1.98"/><rect class="cls-1" x="15.27" y="23.56" width="1.98" height="1.98"/><rect class="cls-1" x="21.18" y="11.75" width="1.98" height="1.98"/><rect class="cls-1" x="21.18" y="17.65" width="1.98" height="1.98"/><rect class="cls-1" x="21.18" y="23.56" width="1.98" height="1.98"/></svg>