<?xml version="1.0" encoding="iso-8859-1"?>
<!-- Generator: Adobe Illustrator 19.0.0, SVG Export Plug-In . SVG Version: 6.00 Build 0)  -->
<svg version="1.1" id="Capa_1" xmlns="http://www.w3.org/2000/svg" xmlns:xlink="http://www.w3.org/1999/xlink" x="0px" y="0px"
	 viewBox="0 0 512.001 512.001" style="enable-background:new 0 0 512.001 512.001;" xml:space="preserve">
<g>
	<g>
		<path d="M512,211.344V77.391c0-20.193-16.428-36.621-36.621-36.621h-10.943V23.031C464.436,10.332,454.104,0,441.404,0
			s-23.031,10.332-23.031,23.031v17.739H407.43c-9.622,0-18.383,3.735-24.926,9.825c-0.419-0.073-0.847-0.118-1.286-0.118H155.047
			c-20.193,0-36.621,16.428-36.621,36.621v20.65H17.207C7.719,107.748,0,115.467,0,124.956v330.039
			c0,9.488,7.719,17.207,17.207,17.207h137.84h19.414h9.707c20.193,0,36.621-16.428,36.621-36.621v-21.621h133.899
			c4.143,0,7.5-3.357,7.5-7.5s-3.357-7.5-7.5-7.5H155.047c-8.08,0-15.558,2.631-21.621,7.08V251.342l29.386-29.387l68.531,68.531
			l-26.703,53.406c-1.853,3.705-0.351,8.21,3.354,10.063c1.077,0.539,2.222,0.794,3.349,0.794c2.751,0,5.4-1.52,6.714-4.147
			l21.024-42.047l13.688,41.065c1.048,3.143,3.974,5.13,7.114,5.13c0.786,0,1.586-0.125,2.373-0.387
			c3.93-1.31,6.053-5.558,4.743-9.487l-11.821-35.464l19.62,14.715c1.35,1.012,2.929,1.5,4.494,1.5c2.28,0,4.532-1.035,6.006-3
			c2.485-3.313,1.813-8.015-1.5-10.5l-20.828-15.621h35.742c4.143,0,7.5-3.357,7.5-7.5s-3.357-7.5-7.5-7.5h-55.135l-16.768-16.768
			l21.62-21.621h98.817c4.143,0,7.5-3.357,7.5-7.5s-3.357-7.5-7.5-7.5h-54.695l11.464-11.464c2.929-2.93,2.929-7.678,0-10.607
			c-2.93-2.928-7.678-2.928-10.607,0l-22.071,22.071h-26.014c-1.989,0-3.896,0.79-5.304,2.196l-23.817,23.817l-42.781-42.781
			l31.327-31.328h64.803c0.011,0,0.023,0.002,0.034,0.002c0.001,0,0.002,0,0.003,0c0,0,0.001,0,0.002,0
			c0.008,0,0.016-0.002,0.024-0.002h29.098c1.48,0,2.929-0.438,4.16-1.26l29.121-19.414c3.446-2.298,4.378-6.954,2.08-10.4
			c-2.297-3.446-6.954-4.378-10.4-2.08l-27.233,18.153h-14.715l23.694-47.388c1.853-3.705,0.351-8.21-3.354-10.063
			c-3.707-1.854-8.211-0.351-10.063,3.354l-21.024,42.047l-13.688-41.065c-1.311-3.93-5.557-6.05-9.487-4.743
			c-3.93,1.31-6.053,5.558-4.743,9.487l11.821,35.464l-19.62-14.715c-3.315-2.485-8.016-1.813-10.5,1.5
			c-2.485,3.313-1.813,8.015,1.5,10.5l20.828,15.621H201.64c-1.989,0-3.896,0.79-5.304,2.196l-62.911,62.911v-56.151
			c0-4.143-3.357-7.5-7.5-7.5s-7.5,3.357-7.5,7.5v139.101L73.242,358.26v-38.365l18.622-37.244c1.853-3.705,0.351-8.21-3.354-10.063
			c-3.707-1.855-8.211-0.351-10.063,3.354l-5.206,10.412v-26.472c0-4.143-3.357-7.5-7.5-7.5c-4.143,0-7.5,3.357-7.5,7.5v33.472
			l-5.674-8.511c-2.298-3.447-6.954-4.378-10.4-2.08c-3.446,2.298-4.378,6.954-2.08,10.4l18.154,27.231v52.865L43.22,388.28H15
			V124.956c0-1.217,0.99-2.207,2.207-2.207h101.219v22.106c0,4.143,3.357,7.5,7.5,7.5s7.5-3.357,7.5-7.5V87.099
			c0-11.922,9.699-21.621,21.621-21.621h217.762c-1.29,3.738-2,7.743-2,11.914v378.574v3.397c0,20.193,16.428,36.621,36.621,36.621
			h12.04c2.974,9.279,11.681,16.017,21.935,16.017c10.254,0,18.961-6.738,21.935-16.017h12.04c20.193,0,36.621-16.428,36.621-36.621
			v-3.397V211.353C512,211.349,512,211.346,512,211.344z M155.047,413.959h50.742v21.621c0,11.922-9.699,21.621-21.621,21.621
			h-9.707h-19.414c-11.922,0-21.621-9.699-21.621-21.621S143.125,413.959,155.047,413.959z M46.328,403.281L46.328,403.281
			c1.989,0,3.896-0.79,5.304-2.196l66.794-66.794V435.58c0,8.082,2.637,15.557,7.088,21.621H17.207c-1.217,0-2.207-0.99-2.207-2.207
			v-51.713H46.328z M433.372,23.031L433.372,23.031c0.001-4.429,3.604-8.031,8.032-8.031c4.428,0,8.031,3.603,8.031,8.031v17.739
			h-16.063V23.031z M449.436,488.969c0,4.428-3.603,8.031-8.032,8.031c-4.429,0-8.031-3.603-8.031-8.031v-25.504h16.063V488.969z
			 M497,459.362c0,11.922-9.699,21.621-21.621,21.621h-10.943v-17.519h6.09c4.143,0,7.5-3.357,7.5-7.5s-3.357-7.5-7.5-7.5h-58.242
			c-4.143,0-7.5,3.357-7.5,7.5s3.357,7.5,7.5,7.5h6.09v17.519H407.43c-11.922,0-21.621-9.699-21.621-21.621v-3.397
			c0-11.922,9.699-21.621,21.621-21.621h67.949c11.922,0,21.621,9.699,21.621,21.621V459.362z M497,426.432
			c-6.064-4.451-13.539-7.088-21.621-7.088H407.43c-8.082,0-15.557,2.637-21.621,7.088V296.504h41.035
			c1.989,0,3.896-0.79,5.304-2.196L497,229.456V426.432z M497,208.241l-43.242,43.243v-38.365l18.622-37.244
			c1.853-3.705,0.351-8.21-3.354-10.063c-3.707-1.855-8.211-0.351-10.063,3.354l-5.206,10.412v-26.472c0-4.143-3.357-7.5-7.5-7.5
			s-7.5,3.357-7.5,7.5v33.472l-5.674-8.511c-2.297-3.446-6.955-4.378-10.4-2.08c-3.446,2.298-4.378,6.954-2.08,10.4l18.154,27.231
			v52.865l-15.021,15.021h-37.929V77.391c0.002-11.922,9.701-21.621,21.623-21.621h67.949c11.922,0,21.621,9.699,21.621,21.621
			V208.241z"/>
	</g>
</g>
<g>
</g>
<g>
</g>
<g>
</g>
<g>
</g>
<g>
</g>
<g>
</g>
<g>
</g>
<g>
</g>
<g>
</g>
<g>
</g>
<g>
</g>
<g>
</g>
<g>
</g>
<g>
</g>
<g>
</g>
</svg>
