<svg id="Layer_1" data-name="Layer 1" xmlns="http://www.w3.org/2000/svg" viewBox="0 0 25 25"><defs><style>.cls-1{fill:#2c3e50;}</style></defs><title>video-interview</title><path class="cls-1" d="M11.64,16.84a.42.42,0,0,0-.3-.12.41.41,0,0,0-.43.43.42.42,0,0,0,.12.3.44.44,0,0,0,.31.13.44.44,0,0,0,.43-.43A.44.44,0,0,0,11.64,16.84Z"/><path class="cls-1" d="M20,3.8H15.62a.43.43,0,0,0-.43.43.43.43,0,0,0,.43.43H20a.34.34,0,0,1,.34.34V8.24a.43.43,0,0,0,.43.43.43.43,0,0,0,.43-.43V5A1.2,1.2,0,0,0,20,3.8Z"/><path class="cls-1" d="M14.35,3.93a.43.43,0,0,0-.73.3.44.44,0,0,0,.13.31.43.43,0,0,0,.6,0,.44.44,0,0,0,.13-.31A.43.43,0,0,0,14.35,3.93Z"/><path class="cls-1" d="M19.86,15.35a2.92,2.92,0,0,0,.89-2.11V10.09a.43.43,0,0,0-.43-.43H17.19A2.35,2.35,0,0,0,14.84,12v1.23a3,3,0,0,0,.87,2.1H12.93v-.88a3.21,3.21,0,0,0-2.82-3.18,2.22,2.22,0,0,0,.51-1.42V8.1s0,0,0-.06,0-.06,0-.09V6.83a.44.44,0,0,0-.43-.43H7.93A1.82,1.82,0,0,0,6.12,8.22V9.86a2.27,2.27,0,0,0,.5,1.42A3.21,3.21,0,0,0,3.8,14.46v.88H2.34V5a.34.34,0,0,1,.34-.34h.51a.43.43,0,0,0,.43-.43.44.44,0,0,0-.43-.43H2.68A1.2,1.2,0,0,0,1.48,5V17.76A1.2,1.2,0,0,0,2.68,19H9.23v2a2.16,2.16,0,0,0-1.94,2.14.43.43,0,0,0,.43.43H23.09a.43.43,0,0,0,.43-.43V19.34A4,4,0,0,0,19.86,15.35ZM15.7,13.24V12a1.49,1.49,0,0,1,1.49-1.49h2.7v2.72a2.1,2.1,0,1,1-4.19,0ZM7,8.22a1,1,0,0,1,.95-1H9.75V8a.61.61,0,0,1-.61.62H7ZM7,9.43H9.14a1.51,1.51,0,0,0,.61-.13v.56h0A1.39,1.39,0,0,1,7,9.86Zm1.89,2.68h0l-.5.5-.51-.5ZM4.66,14.46a2.35,2.35,0,0,1,2-2.32l1.39,1.39a.47.47,0,0,0,.31.12.42.42,0,0,0,.3-.12l1.39-1.39a2.34,2.34,0,0,1,2,2.32v.88H4.66Zm7.41,8.2H8.23a1.28,1.28,0,0,1,1.22-.86h2.62Zm0-3.32v1.6h-2V19h2C12.08,19.08,12.07,19.21,12.07,19.34ZM2.68,18.1a.34.34,0,0,1-.34-.34V16.2H13.59a3.94,3.94,0,0,0-1.32,1.9Zm20,2.84H19.37a.43.43,0,0,0-.43.43.43.43,0,0,0,.43.43h3.29v.86H12.93V19.34a3.14,3.14,0,0,1,3.12-3.14h3.48a3.14,3.14,0,0,1,3.13,3.14Z"/><path class="cls-1" d="M8.38,1.48A.43.43,0,0,0,8,1.91V4.23a.43.43,0,0,0,.43.43.43.43,0,0,0,.43-.43V1.91A.43.43,0,0,0,8.38,1.48Z"/><path class="cls-1" d="M12,3.17a.43.43,0,0,0-.61,0l-.76.75a.43.43,0,0,0,0,.61.39.39,0,0,0,.3.13.43.43,0,0,0,.31-.13L12,3.78A.45.45,0,0,0,12,3.17Z"/><path class="cls-1" d="M6.08,3.93l-.76-.76a.43.43,0,0,0-.61,0,.42.42,0,0,0,0,.6l.76.77a.47.47,0,0,0,.31.12.42.42,0,0,0,.3-.12A.43.43,0,0,0,6.08,3.93Z"/><path class="cls-1" d="M18.1,21.06a.42.42,0,0,0-.3-.12.43.43,0,0,0-.31.12.44.44,0,0,0-.13.31.43.43,0,0,0,.13.3.44.44,0,0,0,.31.13.44.44,0,0,0,.43-.43A.44.44,0,0,0,18.1,21.06Z"/></svg>